Coordinates
version=1
nRows=8
nColumns=36
inDegrees=yes

Units are S.I. units (second, meters, Newtons, ...)
If the header above contains a line with 'inDegrees', this indicates whether rotational values are in degrees (yes) or radians (no).

endheader
time	pelvis_tilt	pelvis_list	pelvis_rotation	pelvis_tx	pelvis_ty	pelvis_tz	hip_flexion_r	hip_adduction_r	hip_rotation_r	knee_angle_r	knee_angle_r_beta	ankle_angle_r	subtalar_angle_r	mtp_angle_r	hip_flexion_l	hip_adduction_l	hip_rotation_l	knee_angle_l	knee_angle_l_beta	ankle_angle_l	subtalar_angle_l	mtp_angle_l	lumbar_extension	lumbar_bending	lumbar_rotation	arm_flex_r	arm_add_r	arm_rot_r	elbow_flex_r	pro_sup_r	arm_flex_l	arm_add_l	arm_rot_l	elbow_flex_l	pro_sup_l
      0.00000000	    -12.09311786	      1.45751670	     -5.28858949	      0.11817655	      0.82934152	      0.14612926	     20.77500220	      1.26444828	     -3.92721455	     13.17273232	      0.22990755	      7.80940570	     -4.00243753	     -7.51326858	     20.86105386	      0.81741832	     -2.12703524	     14.65575894	      0.25579125	      7.69240166	     -4.87453094	     -7.51326858	     -1.93771526	      0.51944311	     -1.25674908	     51.31665241	      9.18213177	     58.68717102	    123.42615293	    107.53717668	     38.27339312	     11.43683687	     68.33414952	    129.14794475	    108.79612868
      0.01666670	    -13.90988618	      1.93789979	     -5.15551241	      0.12379057	      0.83348001	      0.14657423	     22.84439359	      1.20066994	     -2.26018897	     14.39638055	      0.25126424	     10.86299524	     -2.56500585	     -7.51112597	     23.56760855	      1.54148373	     -1.27150014	     16.03364422	      0.27983988	      8.57838266	     -2.96585450	     -7.51112597	      0.79584017	      0.35493048	     -0.29941210	     52.89532333	      8.65206567	     58.57244471	    125.69605898	    106.72535044	     40.23290504	     12.32442748	     70.76831621	    131.10085637	    107.56323930
      0.03333330	    -14.14660594	      2.73746062	     -5.21246722	      0.12594350	      0.83754605	      0.14740285	     22.29093050	      0.59272239	     -2.62160023	     13.14799485	      0.22947580	     10.61501907	     -1.87480672	     -7.51099595	     23.57918292	      2.17815846	     -1.56023599	     15.49062423	      0.27036240	      7.90509662	     -2.95844799	     -7.51099595	      1.85796015	     -0.67865205	      0.25163734	     52.24321727	      8.55479653	     59.38588884	    126.36292225	    106.68518708	     41.37672877	     11.74919871	     70.92495138	    132.29752214	    107.37250211
      0.05000000	    -13.59665776	      2.69556662	     -4.97601484	      0.13137575	      0.83544873	      0.14907823	     21.31491948	      0.63262340	     -2.84002139	     12.99340372	      0.22677768	     11.30840137	     -1.33523804	     -7.51067974	     22.60771223	      2.26538927	     -0.67969044	     15.42049699	      0.26913844	      7.75369760	     -3.41039467	     -7.51067974	      1.79241951	     -0.87560625	      0.64805263	     52.01513016	      8.52426526	     60.68582688	    126.21839553	    106.30006885	     42.64867965	     11.86393831	     71.55527068	    132.25433632	    106.42676015
      0.06666670	    -13.16127442	      2.54960397	     -4.74260822	      0.13227412	      0.83618873	      0.15017399	     20.45210869	      0.85957036	     -2.86828021	     12.80764754	      0.22353562	     11.29238210	     -1.71597822	     -7.50825812	     21.80207878	      2.25583305	     -0.02044019	     15.18656734	      0.26505560	      7.88314152	     -3.54273067	     -7.50825812	      2.02696680	     -0.84295824	      0.88684757	     51.90463443	      8.50579170	     61.86929240	    125.62979473	    101.30053597	     43.48002446	     12.33321255	     72.51736690	    132.09475279	    100.28862653
      0.08333330	    -13.06856919	      2.28492606	     -4.52193807	      0.13177530	      0.83800511	      0.14991860	     20.27812907	      1.21262693	     -2.69291545	     12.89934979	      0.22513613	     11.30214394	     -2.34670027	     -7.50774731	     21.73168480	      2.08156733	      0.72928851	     15.45618641	      0.26976134	      8.06366513	     -3.95810760	     -7.50774731	      2.37999837	     -0.65540976	      1.01164595	     51.94112825	      8.29217036	     62.54052356	    125.19896877	    100.14487520	     43.97191641	     12.85472815	     73.64345731	    132.45126229	     98.50507057
      0.10000000	    -12.75527292	      2.04052506	     -4.10614069	      0.13656981	      0.84483334	      0.14996541	     19.50322838	      1.43600596	     -2.63006012	     12.46121562	      0.21748924	     10.46760307	     -2.94358839	     -7.50598901	     21.06323245	      1.99791510	      1.45400023	     15.19366288	      0.26517944	      7.66349721	     -4.19124830	     -7.50598901	      2.44278604	     -0.51148644	      0.96796137	     51.46715225	      7.83843764	     62.95554989	    124.88508250	     99.18498802	     43.77763193	     13.06795281	     74.98316173	    132.80734055	     91.70462921
      0.11666670	    -12.37133257	      1.94004032	     -3.85785090	      0.14099309	      0.84012287	      0.15029757	     18.79561763	      1.50702801	     -2.46000269	     12.42772191	      0.21690467	     10.24627162	     -3.32258377	     -7.50518245	     20.32030458	      2.01173353	      1.95793042	     15.05959737	      0.26283956	      7.65805626	     -4.26884399	     -7.50518245	      2.55075563	     -0.49119997	      0.74315486	     51.55685314	      7.91592878	     63.31357452	    124.72582560	     96.34032761	     43.87265917	     13.32900199	     75.87775670	    133.52615521	     88.81130875
